<?xml version="1.0" encoding="UTF-8"?>
<!-- Generator: Adobe Illustrator 23.0.3, SVG Export Plug-In . SVG Version: 6.00 Build 0)  -->
<svg xmlns="http://www.w3.org/2000/svg" xmlns:xlink="http://www.w3.org/1999/xlink" id="Layer_1" x="0px" y="0px" viewBox="0 0 319.1 40.8" style="enable-background:new 0 0 319.1 40.8;" xml:space="preserve">
<style type="text/css">
	.st0{fill:#333F48;}
	.st1{fill:#007681;}
	.st2{fill:#FFFFFF;}
</style>
<g>
	<path class="st0" d="M64.5,19.9L64.5,19.9c0-8.2,6.1-14.8,14.8-14.8c5.4,0,8.6,1.8,11.2,4.4l-4,4.6c-2.2-2-4.4-3.2-7.3-3.2   c-4.8,0-8.2,4-8.2,8.9v0.1c0,4.9,3.4,8.9,8.2,8.9c3.3,0,5.2-1.3,7.5-3.3l4,4c-2.9,3.1-6.2,5.1-11.7,5.1   C70.7,34.6,64.5,28.1,64.5,19.9z"></path>
	<path class="st0" d="M93.7,19.9L93.7,19.9c0-8.2,6.4-14.8,15.2-14.8s15.1,6.5,15.1,14.6v0.1c0,8.1-6.4,14.7-15.2,14.7   S93.7,28,93.7,19.9z M117.4,19.9L117.4,19.9c0-5-3.6-9-8.6-9c-5,0-8.5,4-8.5,8.9v0.1c0,4.9,3.6,8.9,8.6,8.9   C113.9,28.8,117.4,24.8,117.4,19.9z"></path>
	<path class="st0" d="M129.5,5.6h11.1c8.9,0,15.1,6.1,15.1,14.1v0.1c0,8-6.2,14.2-15.1,14.2h-11.1V5.6z M135.7,11.3v17.1h4.8   c5.1,0,8.6-3.5,8.6-8.5v-0.1c0-5-3.5-8.6-8.6-8.6H135.7z"></path>
	<path class="st0" d="M161.2,5.6h21.5v5.6h-15.2V17h13.4v5.6h-13.4v6h15.4v5.6h-21.7V5.6z"></path>
	<path class="st0" d="M207.3,11.4h-8.7V5.6h23.6v5.8h-8.7v22.7h-6.3V11.4z"></path>
	<path class="st0" d="M227,5.6h21.5v5.6h-15.2V17h13.4v5.6h-13.4v6h15.4v5.6H227V5.6z"></path>
	<path class="st0" d="M253,19.9L253,19.9c0-8.2,6.1-14.8,14.8-14.8c5.4,0,8.6,1.8,11.2,4.4l-4,4.6c-2.2-2-4.4-3.2-7.3-3.2   c-4.8,0-8.2,4-8.2,8.9v0.1c0,4.9,3.4,8.9,8.2,8.9c3.3,0,5.2-1.3,7.5-3.3l4,4c-2.9,3.1-6.2,5.1-11.7,5.1   C259.2,34.6,253,28.1,253,19.9z"></path>
	<path class="st0" d="M284.2,5.6h6.3v11.3H302V5.6h6.3v28.4H302V22.7h-11.5v11.4h-6.3V5.6z"></path>
</g>
<path class="st1" d="M32.4,0.1H21.2c-11,0-20.4,8.6-20.8,19.6c-0.4,11.5,8.8,21,20.2,21h11.2c11,0,20.4-8.6,20.8-19.6  C53,9.5,43.8,0.1,32.4,0.1"></path>
<g>
	<path class="st2" d="M37,19.7L27.7,3.6C27.4,3.2,27,2.9,26.5,3c-0.5,0-0.9,0.2-1.2,0.7l-9.2,16.1c-1,1.8-1.6,3.8-1.6,5.9   c0,7.1,6.1,12.7,13.4,12c5.4-0.6,9.8-4.8,10.6-10.2C38.9,24.6,38.3,21.9,37,19.7z M26.5,35c-5.7,0-10.3-5.2-9.2-11.1   c0.2-1,0.6-2,1.1-2.9l8-14l0,0.1l0,0l3.4,5.8l2.1,3.6h0l2.6,4.6c0.8,1.4,1.2,3,1.2,4.6C35.9,30.8,31.7,35,26.5,35z"></path>
	<path class="st2" d="M32.2,26c0-1-0.6-2.5-1.4-4.1c-0.5-0.9-1.8-1-2.4-0.1c-0.2,0.4-0.2,0.9,0,1.3c0.7,1.3,1.1,2.3,1.1,2.8   c0,1.7-1.3,3-3,3c-1.7,0-3-1.3-3-3c0-0.9,1.3-3.4,3-6.1c0,0,0.7-1.2,1.1-1.9c0.2-0.4,0.2-0.9,0-1.3c0,0,0,0,0,0   c-0.5-0.7-1.6-0.7-2.1,0c-1.6,2.4-4.7,7.2-4.7,9.5c0,3.1,2.6,5.7,5.7,5.7C29.7,31.7,32.2,29.2,32.2,26"></path>
</g>
<g>
	<path class="st0" d="M314.8,8.3L314.8,8.3l-1-1.5v2.3H313V5.6h0.8l0.9,1.5l0.9-1.5h0.8v3.5h-0.7V6.8L314.8,8.3z M311.2,9.1h-0.8   V6.3h-1V5.6h2.9v0.7h-1V9.1z"></path>
</g>
</svg>
